<?xml version="1.0" standalone="no"?>
<!DOCTYPE svg PUBLIC "-//W3C//DTD SVG 1.1//EN"
    "http://www.w3.org/Graphics/SVG/1.1/DTD/svg11.dtd">

<svg width="926" height="1602" view_box="0 0 926 1602"
     xmlns="http://www.w3.org/2000/svg"
>\n\n
    <desc>Généré par Mocodo 2.3.7 le Sun, 19 Jun 2022 09:42:47</desc>

    <rect id="frame" x="0" y="0" width="926" height="1602" fill="#f7f7f7" stroke="none" stroke-width="0"/>

    <!-- Association LINK SAVING IN -->
    <line x1="842" y1="779" x2="734" y2="1136" stroke="#8073ac" stroke-width="1.5"/>
    <text x="799.566063197" y="841" fill="#b35806" font-family="Arial" font-size="12">0,N</text>
    <line x1="456" y1="1136" x2="734" y2="1136" stroke="#8073ac" stroke-width="1.5"/>
    <text x="500" y="1127.0" fill="#b35806" font-family="Arial" font-size="12">0,1</text>
    <g id="association-LINK SAVING IN">
        <path d="M 788 1108 a 14 14 90 0 1 14 14 V 1135 h -136 V 1122 a 14 14 90 0 1 14 -14" fill="#b2abd2" stroke="#b2abd2" stroke-width="0"/>
        <path d="M 802 1135.0 v 15 a 14 14 90 0 1 -14 14 H 680 a 14 14 90 0 1 -14 -14 V 1135.0 H 136" fill="#d8daeb" stroke="#d8daeb" stroke-width="0"/>
        <rect x="666" y="1108" width="136" height="56" fill="none" rx="14" stroke="#8073ac" stroke-width="3"/>
        <line x1="666" y1="1135" x2="802" y2="1135" stroke="#8073ac" stroke-width="1.5"/>
        <text x="675" y="1128.3" fill="#000000" font-family="Arial Black" font-size="13">LINK SAVING IN</text>
    </g>

    <!-- Association LINK BANK IN -->
    <line x1="77" y1="779" x2="178" y2="1136" stroke="#8073ac" stroke-width="1.5"/>
    <text x="99.9076856258" y="850" fill="#b35806" font-family="Arial" font-size="12">0,N</text>
    <line x1="456" y1="1136" x2="178" y2="1136" stroke="#8073ac" stroke-width="1.5"/>
    <text x="394" y="1127.0" fill="#b35806" font-family="Arial" font-size="12">0,1</text>
    <g id="association-LINK BANK IN">
        <path d="M 225 1108 a 14 14 90 0 1 14 14 V 1135 h -122 V 1122 a 14 14 90 0 1 14 -14" fill="#b2abd2" stroke="#b2abd2" stroke-width="0"/>
        <path d="M 239 1135.0 v 15 a 14 14 90 0 1 -14 14 H 131 a 14 14 90 0 1 -14 -14 V 1135.0 H 122" fill="#d8daeb" stroke="#d8daeb" stroke-width="0"/>
        <rect x="117" y="1108" width="122" height="56" fill="none" rx="14" stroke="#8073ac" stroke-width="3"/>
        <line x1="117" y1="1135" x2="239" y2="1135" stroke="#8073ac" stroke-width="1.5"/>
        <text x="126" y="1128.3" fill="#000000" font-family="Arial Black" font-size="13">LINK BANK IN</text>
    </g>

    <!-- Association POSSESS SAVING -->
    <line x1="456" y1="485" x2="842" y2="485" stroke="#8073ac" stroke-width="1.5"/>
    <text x="502" y="502.0" fill="#b35806" font-family="Arial" font-size="12">0,N</text>
    <line x1="842" y1="779" x2="842" y2="485" stroke="#8073ac" stroke-width="1.5"/>
    <text x="848.0" y="725" fill="#b35806" font-family="Arial" font-size="12">1,1</text>
    <g id="association-POSSESS SAVING">
        <path d="M 902 457 a 14 14 90 0 1 14 14 V 484 h -148 V 471 a 14 14 90 0 1 14 -14" fill="#b2abd2" stroke="#b2abd2" stroke-width="0"/>
        <path d="M 916 484.0 v 15 a 14 14 90 0 1 -14 14 H 782 a 14 14 90 0 1 -14 -14 V 484.0 H 148" fill="#d8daeb" stroke="#d8daeb" stroke-width="0"/>
        <rect x="768" y="457" width="148" height="56" fill="none" rx="14" stroke="#8073ac" stroke-width="3"/>
        <line x1="768" y1="484" x2="916" y2="484" stroke="#8073ac" stroke-width="1.5"/>
        <text x="777" y="477.3" fill="#000000" font-family="Arial Black" font-size="13">POSSESS SAVING</text>
    </g>

    <!-- Association SIMULATE BANK -->
    <line x1="77" y1="779" x2="297" y2="619" stroke="#8073ac" stroke-width="1.5"/>
    <text x="127" y="757.386332933" fill="#b35806" font-family="Arial" font-size="12">0,N</text>
    <line x1="456" y1="619" x2="297" y2="619" stroke="#8073ac" stroke-width="1.5"/>
    <text x="384" y="636.0" fill="#b35806" font-family="Arial" font-size="12">1,1</text>
    <g id="association-SIMULATE BANK">
        <path d="M 353 591 a 14 14 90 0 1 14 14 V 618 h -140 V 605 a 14 14 90 0 1 14 -14" fill="#b2abd2" stroke="#b2abd2" stroke-width="0"/>
        <path d="M 367 618.0 v 15 a 14 14 90 0 1 -14 14 H 241 a 14 14 90 0 1 -14 -14 V 618.0 H 140" fill="#d8daeb" stroke="#d8daeb" stroke-width="0"/>
        <rect x="227" y="591" width="140" height="56" fill="none" rx="14" stroke="#8073ac" stroke-width="3"/>
        <line x1="227" y1="618" x2="367" y2="618" stroke="#8073ac" stroke-width="1.5"/>
        <text x="236" y="611.3" fill="#000000" font-family="Arial Black" font-size="13">SIMULATE BANK</text>
    </g>

    <!-- Association LINK BANK OUT -->
    <line x1="77" y1="779" x2="77" y2="1530" stroke="#8073ac" stroke-width="1.5"/>
    <text x="50.0" y="850" fill="#b35806" font-family="Arial" font-size="12">0,N</text>
    <line x1="456" y1="1530" x2="77" y2="1530" stroke="#8073ac" stroke-width="1.5"/>
    <text x="389" y="1547.0" fill="#b35806" font-family="Arial" font-size="12">0,1</text>
    <g id="association-LINK BANK OUT">
        <path d="M 131 1502 a 14 14 90 0 1 14 14 V 1529 h -136 V 1516 a 14 14 90 0 1 14 -14" fill="#b2abd2" stroke="#b2abd2" stroke-width="0"/>
        <path d="M 145 1529.0 v 15 a 14 14 90 0 1 -14 14 H 23 a 14 14 90 0 1 -14 -14 V 1529.0 H 136" fill="#d8daeb" stroke="#d8daeb" stroke-width="0"/>
        <rect x="9" y="1502" width="136" height="56" fill="none" rx="14" stroke="#8073ac" stroke-width="3"/>
        <line x1="9" y1="1529" x2="145" y2="1529" stroke="#8073ac" stroke-width="1.5"/>
        <text x="18" y="1522.3" fill="#000000" font-family="Arial Black" font-size="13">LINK BANK OUT</text>
    </g>

    <!-- Association HISTORIZE -->
    <line x1="456" y1="242" x2="297" y2="242" stroke="#8073ac" stroke-width="1.5"/>
    <text x="379" y="259.0" fill="#b35806" font-family="Arial" font-size="12">0,N</text>
    <line x1="297" y1="72" x2="297" y2="242" stroke="#8073ac" stroke-width="1.5"/>
    <text x="303.0" y="152" fill="#b35806" font-family="Arial" font-size="12">1,1</text>
    <g id="association-HISTORIZE">
        <path d="M 332 214 a 14 14 90 0 1 14 14 V 241 h -98 V 228 a 14 14 90 0 1 14 -14" fill="#b2abd2" stroke="#b2abd2" stroke-width="0"/>
        <path d="M 346 241.0 v 15 a 14 14 90 0 1 -14 14 H 262 a 14 14 90 0 1 -14 -14 V 241.0 H 98" fill="#d8daeb" stroke="#d8daeb" stroke-width="0"/>
        <rect x="248" y="214" width="98" height="56" fill="none" rx="14" stroke="#8073ac" stroke-width="3"/>
        <line x1="248" y1="241" x2="346" y2="241" stroke="#8073ac" stroke-width="1.5"/>
        <text x="257" y="234.3" fill="#000000" font-family="Arial Black" font-size="13">HISTORIZE</text>
    </g>

    <!-- Association BELONG -->
    <line x1="77" y1="779" x2="456" y2="779" stroke="#8073ac" stroke-width="1.5"/>
    <text x="127" y="796.0" fill="#b35806" font-family="Arial" font-size="12">0,N</text>
    <line x1="842" y1="779" x2="456" y2="779" stroke="#8073ac" stroke-width="1.5"/>
    <text x="774" y="796.0" fill="#b35806" font-family="Arial" font-size="12">0,1</text>
    <g id="association-BELONG">
        <path d="M 482 751 a 14 14 90 0 1 14 14 V 778 h -80 V 765 a 14 14 90 0 1 14 -14" fill="#b2abd2" stroke="#b2abd2" stroke-width="0"/>
        <path d="M 496 778.0 v 15 a 14 14 90 0 1 -14 14 H 430 a 14 14 90 0 1 -14 -14 V 778.0 H 80" fill="#d8daeb" stroke="#d8daeb" stroke-width="0"/>
        <rect x="416" y="751" width="80" height="56" fill="none" rx="14" stroke="#8073ac" stroke-width="3"/>
        <line x1="416" y1="778" x2="496" y2="778" stroke="#8073ac" stroke-width="1.5"/>
        <text x="425" y="771.3" fill="#000000" font-family="Arial Black" font-size="13">BELONG</text>
    </g>

    <!-- Association LINK SAVING OUT -->
    <line x1="842" y1="779" x2="842" y2="1530" stroke="#8073ac" stroke-width="1.5"/>
    <text x="848.0" y="841" fill="#b35806" font-family="Arial" font-size="12">0,N</text>
    <line x1="456" y1="1530" x2="842" y2="1530" stroke="#8073ac" stroke-width="1.5"/>
    <text x="505" y="1547.0" fill="#b35806" font-family="Arial" font-size="12">0,1</text>
    <g id="association-LINK SAVING OUT">
        <path d="M 903 1502 a 14 14 90 0 1 14 14 V 1529 h -150 V 1516 a 14 14 90 0 1 14 -14" fill="#b2abd2" stroke="#b2abd2" stroke-width="0"/>
        <path d="M 917 1529.0 v 15 a 14 14 90 0 1 -14 14 H 781 a 14 14 90 0 1 -14 -14 V 1529.0 H 150" fill="#d8daeb" stroke="#d8daeb" stroke-width="0"/>
        <rect x="767" y="1502" width="150" height="56" fill="none" rx="14" stroke="#8073ac" stroke-width="3"/>
        <line x1="767" y1="1529" x2="917" y2="1529" stroke="#8073ac" stroke-width="1.5"/>
        <text x="776" y="1522.3" fill="#000000" font-family="Arial Black" font-size="13">LINK SAVING OUT</text>
    </g>

    <!-- Association POSSESS BANK -->
    <line x1="456" y1="485" x2="77" y2="485" stroke="#8073ac" stroke-width="1.5"/>
    <text x="389" y="502.0" fill="#b35806" font-family="Arial" font-size="12">0,N</text>
    <line x1="77" y1="779" x2="77" y2="485" stroke="#8073ac" stroke-width="1.5"/>
    <text x="53.0" y="716" fill="#b35806" font-family="Arial" font-size="12">1,1</text>
    <g id="association-POSSESS BANK">
        <path d="M 129 457 a 14 14 90 0 1 14 14 V 484 h -132 V 471 a 14 14 90 0 1 14 -14" fill="#b2abd2" stroke="#b2abd2" stroke-width="0"/>
        <path d="M 143 484.0 v 15 a 14 14 90 0 1 -14 14 H 25 a 14 14 90 0 1 -14 -14 V 484.0 H 132" fill="#d8daeb" stroke="#d8daeb" stroke-width="0"/>
        <rect x="11" y="457" width="132" height="56" fill="none" rx="14" stroke="#8073ac" stroke-width="3"/>
        <line x1="11" y1="484" x2="143" y2="484" stroke="#8073ac" stroke-width="1.5"/>
        <text x="20" y="477.3" fill="#000000" font-family="Arial Black" font-size="13">POSSESS BANK</text>
    </g>

    <!-- Association TAG OUT -->
    <line x1="456" y1="1530" x2="622" y2="1441" stroke="#8073ac" stroke-width="1.5"/>
    <text x="505" y="1518.92938396" fill="#b35806" font-family="Arial" font-size="12">0,1</text>
    <line x1="622" y1="1333" x2="622" y2="1441" stroke="#8073ac" stroke-width="1.5"/>
    <text x="628.0" y="1404" fill="#b35806" font-family="Arial" font-size="12">0,N</text>
    <g id="association-TAG OUT">
        <path d="M 651 1413 a 14 14 90 0 1 14 14 V 1440 h -86 V 1427 a 14 14 90 0 1 14 -14" fill="#b2abd2" stroke="#b2abd2" stroke-width="0"/>
        <path d="M 665 1440.0 v 15 a 14 14 90 0 1 -14 14 H 593 a 14 14 90 0 1 -14 -14 V 1440.0 H 86" fill="#d8daeb" stroke="#d8daeb" stroke-width="0"/>
        <rect x="579" y="1413" width="86" height="56" fill="none" rx="14" stroke="#8073ac" stroke-width="3"/>
        <line x1="579" y1="1440" x2="665" y2="1440" stroke="#8073ac" stroke-width="1.5"/>
        <text x="588" y="1433.3" fill="#000000" font-family="Arial Black" font-size="13">TAG OUT</text>
    </g>

    <!-- Association CATEGORIZE OUT -->
    <line x1="456" y1="1530" x2="297" y2="1441" stroke="#8073ac" stroke-width="1.5"/>
    <text x="389" y="1517.70532037" fill="#b35806" font-family="Arial" font-size="12">0,1</text>
    <line x1="297" y1="1333" x2="297" y2="1441" stroke="#8073ac" stroke-width="1.5"/>
    <text x="303.0" y="1404" fill="#b35806" font-family="Arial" font-size="12">0,N</text>
    <g id="association-CATEGORIZE OUT">
        <path d="M 358 1413 a 14 14 90 0 1 14 14 V 1440 h -150 V 1427 a 14 14 90 0 1 14 -14" fill="#b2abd2" stroke="#b2abd2" stroke-width="0"/>
        <path d="M 372 1440.0 v 15 a 14 14 90 0 1 -14 14 H 236 a 14 14 90 0 1 -14 -14 V 1440.0 H 150" fill="#d8daeb" stroke="#d8daeb" stroke-width="0"/>
        <rect x="222" y="1413" width="150" height="56" fill="none" rx="14" stroke="#8073ac" stroke-width="3"/>
        <line x1="222" y1="1440" x2="372" y2="1440" stroke="#8073ac" stroke-width="1.5"/>
        <text x="231" y="1433.3" fill="#000000" font-family="Arial Black" font-size="13">CATEGORIZE OUT</text>
    </g>

    <!-- Association TAG IN -->
    <line x1="456" y1="1136" x2="622" y2="1225" stroke="#8073ac" stroke-width="1.5"/>
    <text x="500" y="1152.38989315" fill="#b35806" font-family="Arial" font-size="12">0,1</text>
    <line x1="622" y1="1333" x2="622" y2="1225" stroke="#8073ac" stroke-width="1.5"/>
    <text x="628.0" y="1270" fill="#b35806" font-family="Arial" font-size="12">0,N</text>
    <g id="association-TAG IN">
        <path d="M 643 1197 a 14 14 90 0 1 14 14 V 1224 h -70 V 1211 a 14 14 90 0 1 14 -14" fill="#b2abd2" stroke="#b2abd2" stroke-width="0"/>
        <path d="M 657 1224.0 v 15 a 14 14 90 0 1 -14 14 H 601 a 14 14 90 0 1 -14 -14 V 1224.0 H 70" fill="#d8daeb" stroke="#d8daeb" stroke-width="0"/>
        <rect x="587" y="1197" width="70" height="56" fill="none" rx="14" stroke="#8073ac" stroke-width="3"/>
        <line x1="587" y1="1224" x2="657" y2="1224" stroke="#8073ac" stroke-width="1.5"/>
        <text x="596" y="1217.3" fill="#000000" font-family="Arial Black" font-size="13">TAG IN</text>
    </g>

    <!-- Association HAVE -->
    <line x1="456" y1="485" x2="456" y2="377" stroke="#8073ac" stroke-width="1.5"/>
    <text x="462.0" y="422" fill="#b35806" font-family="Arial" font-size="12">0,N</text>
    <line x1="456" y1="242" x2="456" y2="377" stroke="#8073ac" stroke-width="1.5"/>
    <text x="462.0" y="340" fill="#b35806" font-family="Arial" font-size="12">1,1</text>
    <g id="association-HAVE">
        <path d="M 472 349 a 14 14 90 0 1 14 14 V 376 h -60 V 363 a 14 14 90 0 1 14 -14" fill="#b2abd2" stroke="#b2abd2" stroke-width="0"/>
        <path d="M 486 376.0 v 15 a 14 14 90 0 1 -14 14 H 440 a 14 14 90 0 1 -14 -14 V 376.0 H 60" fill="#d8daeb" stroke="#d8daeb" stroke-width="0"/>
        <rect x="426" y="349" width="60" height="56" fill="none" rx="14" stroke="#8073ac" stroke-width="3"/>
        <line x1="426" y1="376" x2="486" y2="376" stroke="#8073ac" stroke-width="1.5"/>
        <text x="435" y="369.3" fill="#000000" font-family="Arial Black" font-size="13">HAVE</text>
    </g>

    <!-- Association SCHEDULE SAVING -->
    <line x1="842" y1="779" x2="622" y2="966" stroke="#8073ac" stroke-width="1.5"/>
    <text x="771" y="814.915418875" fill="#b35806" font-family="Arial" font-size="12">0,N</text>
    <line x1="456" y1="966" x2="622" y2="966" stroke="#8073ac" stroke-width="1.5"/>
    <text x="516" y="983.0" fill="#b35806" font-family="Arial" font-size="12">1,1</text>
    <g id="association-SCHEDULE SAVING">
        <path d="M 687 938 a 14 14 90 0 1 14 14 V 965 h -158 V 952 a 14 14 90 0 1 14 -14" fill="#b2abd2" stroke="#b2abd2" stroke-width="0"/>
        <path d="M 701 965.0 v 15 a 14 14 90 0 1 -14 14 H 557 a 14 14 90 0 1 -14 -14 V 965.0 H 158" fill="#d8daeb" stroke="#d8daeb" stroke-width="0"/>
        <rect x="543" y="938" width="158" height="56" fill="none" rx="14" stroke="#8073ac" stroke-width="3"/>
        <line x1="543" y1="965" x2="701" y2="965" stroke="#8073ac" stroke-width="1.5"/>
        <text x="552" y="958.3" fill="#000000" font-family="Arial Black" font-size="13">SCHEDULE SAVING</text>
    </g>

    <!-- Association SIMULATE SAVING -->
    <line x1="842" y1="779" x2="622" y2="619" stroke="#8073ac" stroke-width="1.5"/>
    <text x="771" y="757.386332933" fill="#b35806" font-family="Arial" font-size="12">0,N</text>
    <line x1="456" y1="619" x2="622" y2="619" stroke="#8073ac" stroke-width="1.5"/>
    <text x="510" y="636.0" fill="#b35806" font-family="Arial" font-size="12">1,1</text>
    <g id="association-SIMULATE SAVING">
        <path d="M 686 591 a 14 14 90 0 1 14 14 V 618 h -156 V 605 a 14 14 90 0 1 14 -14" fill="#b2abd2" stroke="#b2abd2" stroke-width="0"/>
        <path d="M 700 618.0 v 15 a 14 14 90 0 1 -14 14 H 558 a 14 14 90 0 1 -14 -14 V 618.0 H 156" fill="#d8daeb" stroke="#d8daeb" stroke-width="0"/>
        <rect x="544" y="591" width="156" height="56" fill="none" rx="14" stroke="#8073ac" stroke-width="3"/>
        <line x1="544" y1="618" x2="700" y2="618" stroke="#8073ac" stroke-width="1.5"/>
        <text x="553" y="611.3" fill="#000000" font-family="Arial Black" font-size="13">SIMULATE SAVING</text>
    </g>

    <!-- Association TYPE -->
    <line x1="456" y1="242" x2="622" y2="242" stroke="#8073ac" stroke-width="1.5"/>
    <text x="512" y="259.0" fill="#b35806" font-family="Arial" font-size="12">1,1</text>
    <line x1="622" y1="72" x2="622" y2="242" stroke="#8073ac" stroke-width="1.5"/>
    <text x="628.0" y="152" fill="#b35806" font-family="Arial" font-size="12">0,N</text>
    <g id="association-TYPE">
        <path d="M 637 214 a 14 14 90 0 1 14 14 V 241 h -58 V 228 a 14 14 90 0 1 14 -14" fill="#b2abd2" stroke="#b2abd2" stroke-width="0"/>
        <path d="M 651 241.0 v 15 a 14 14 90 0 1 -14 14 H 607 a 14 14 90 0 1 -14 -14 V 241.0 H 58" fill="#d8daeb" stroke="#d8daeb" stroke-width="0"/>
        <rect x="593" y="214" width="58" height="56" fill="none" rx="14" stroke="#8073ac" stroke-width="3"/>
        <line x1="593" y1="241" x2="651" y2="241" stroke="#8073ac" stroke-width="1.5"/>
        <text x="602" y="234.3" fill="#000000" font-family="Arial Black" font-size="13">TYPE</text>
    </g>

    <!-- Association SCHEDULE BANK -->
    <line x1="77" y1="779" x2="297" y2="966" stroke="#8073ac" stroke-width="1.5"/>
    <text x="127" y="814.915418875" fill="#b35806" font-family="Arial" font-size="12">0,N</text>
    <line x1="456" y1="966" x2="297" y2="966" stroke="#8073ac" stroke-width="1.5"/>
    <text x="378" y="983.0" fill="#b35806" font-family="Arial" font-size="12">1,1</text>
    <g id="association-SCHEDULE BANK">
        <path d="M 355 938 a 14 14 90 0 1 14 14 V 965 h -144 V 952 a 14 14 90 0 1 14 -14" fill="#b2abd2" stroke="#b2abd2" stroke-width="0"/>
        <path d="M 369 965.0 v 15 a 14 14 90 0 1 -14 14 H 239 a 14 14 90 0 1 -14 -14 V 965.0 H 144" fill="#d8daeb" stroke="#d8daeb" stroke-width="0"/>
        <rect x="225" y="938" width="144" height="56" fill="none" rx="14" stroke="#8073ac" stroke-width="3"/>
        <line x1="225" y1="965" x2="369" y2="965" stroke="#8073ac" stroke-width="1.5"/>
        <text x="234" y="958.3" fill="#000000" font-family="Arial Black" font-size="13">SCHEDULE BANK</text>
    </g>

    <!-- Association CATEGORIZE IN -->
    <line x1="456" y1="1136" x2="297" y2="1225" stroke="#8073ac" stroke-width="1.5"/>
    <text x="394" y="1153.49593749" fill="#b35806" font-family="Arial" font-size="12">0,1</text>
    <line x1="297" y1="1333" x2="297" y2="1225" stroke="#8073ac" stroke-width="1.5"/>
    <text x="303.0" y="1270" fill="#b35806" font-family="Arial" font-size="12">0,N</text>
    <g id="association-CATEGORIZE IN">
        <path d="M 350 1197 a 14 14 90 0 1 14 14 V 1224 h -134 V 1211 a 14 14 90 0 1 14 -14" fill="#b2abd2" stroke="#b2abd2" stroke-width="0"/>
        <path d="M 364 1224.0 v 15 a 14 14 90 0 1 -14 14 H 244 a 14 14 90 0 1 -14 -14 V 1224.0 H 134" fill="#d8daeb" stroke="#d8daeb" stroke-width="0"/>
        <rect x="230" y="1197" width="134" height="56" fill="none" rx="14" stroke="#8073ac" stroke-width="3"/>
        <line x1="230" y1="1224" x2="364" y2="1224" stroke="#8073ac" stroke-width="1.5"/>
        <text x="239" y="1217.3" fill="#000000" font-family="Arial Black" font-size="13">CATEGORIZE IN</text>
    </g>

    <!-- Entity CATEGORY -->
    <g id="entity-CATEGORY">
        <g id="frame-CATEGORY">
            <rect x="248" y="1279" width="98" height="28" fill="#fdb863" stroke="#fdb863" stroke-width="0"/>
            <rect x="248" y="1307.0" width="98" height="80" fill="#fee0b6" stroke="#fee0b6" stroke-width="0"/>
            <rect x="248" y="1279" width="98" height="108" fill="none" stroke="#e08214" stroke-width="3"/>
            <line x1="248" y1="1307" x2="346" y2="1307" stroke="#e08214" stroke-width="1.5"/>
        </g>
        <text x="256" y="1299.3" fill="#000000" font-family="Arial Black" font-size="13">CATEGORY</text>
        <text x="256" y="1323.2" fill="#000000" font-family="Arial" font-size="14">ca_id</text>
        <line x1="256" y1="1326" x2="292" y2="1326" stroke="#000000" stroke-width="1.2"/>
        <text x="256" y="1341.2" fill="#000000" font-family="Arial" font-size="14">name</text>
        <text x="256" y="1359.2" fill="#000000" font-family="Arial" font-size="14">income</text>
        <text x="256" y="1377.2" fill="#000000" font-family="Arial" font-size="14">expense</text>
    </g>

    <!-- Entity SAVING -->
    <g id="entity-SAVING">
        <g id="frame-SAVING">
            <rect x="798" y="734" width="88" height="28" fill="#fdb863" stroke="#fdb863" stroke-width="0"/>
            <rect x="798" y="762.0" width="88" height="62" fill="#fee0b6" stroke="#fee0b6" stroke-width="0"/>
            <rect x="798" y="734" width="88" height="90" fill="none" stroke="#e08214" stroke-width="3"/>
            <line x1="798" y1="762" x2="886" y2="762" stroke="#e08214" stroke-width="1.5"/>
        </g>
        <text x="813" y="754.3" fill="#000000" font-family="Arial Black" font-size="13">SAVING</text>
        <text x="806" y="778.2" fill="#000000" font-family="Arial" font-size="14">sa_id</text>
        <line x1="806" y1="781" x2="842" y2="781" stroke="#000000" stroke-width="1.2"/>
        <text x="806" y="796.2" fill="#000000" font-family="Arial" font-size="14">name</text>
        <text x="806" y="814.2" fill="#000000" font-family="Arial" font-size="14">description</text>
    </g>

    <!-- Entity USERS -->
    <g id="entity-USERS">
        <g id="frame-USERS">
            <rect x="416" y="431" width="80" height="28" fill="#fdb863" stroke="#fdb863" stroke-width="0"/>
            <rect x="416" y="459.0" width="80" height="80" fill="#fee0b6" stroke="#fee0b6" stroke-width="0"/>
            <rect x="416" y="431" width="80" height="108" fill="none" stroke="#e08214" stroke-width="3"/>
            <line x1="416" y1="459" x2="496" y2="459" stroke="#e08214" stroke-width="1.5"/>
        </g>
        <text x="431" y="451.3" fill="#000000" font-family="Arial Black" font-size="13">USERS</text>
        <text x="424" y="475.2" fill="#000000" font-family="Arial" font-size="14">us_id</text>
        <line x1="424" y1="478" x2="460" y2="478" stroke="#000000" stroke-width="1.2"/>
        <text x="424" y="493.2" fill="#000000" font-family="Arial" font-size="14">login</text>
        <text x="424" y="511.2" fill="#000000" font-family="Arial" font-size="14">password</text>
        <text x="424" y="529.2" fill="#000000" font-family="Arial" font-size="14">email</text>
    </g>

    <!-- Entity HISTORY_OBJECTIVE -->
    <g id="entity-HISTORY_OBJECTIVE">
        <g id="frame-HISTORY_OBJECTIVE">
            <rect x="211" y="9" width="172" height="28" fill="#fdb863" stroke="#fdb863" stroke-width="0"/>
            <rect x="211" y="37.0" width="172" height="98" fill="#fee0b6" stroke="#fee0b6" stroke-width="0"/>
            <rect x="211" y="9" width="172" height="126" fill="none" stroke="#e08214" stroke-width="3"/>
            <line x1="211" y1="37" x2="383" y2="37" stroke="#e08214" stroke-width="1.5"/>
        </g>
        <text x="219" y="29.3" fill="#000000" font-family="Arial Black" font-size="13">HISTORY_OBJECTIVE</text>
        <text x="219" y="53.2" fill="#000000" font-family="Arial" font-size="14">ho_id</text>
        <line x1="219" y1="56" x2="256" y2="56" stroke="#000000" stroke-width="1.2"/>
        <text x="219" y="71.2" fill="#000000" font-family="Arial" font-size="14">success</text>
        <text x="219" y="89.2" fill="#000000" font-family="Arial" font-size="14">amount</text>
        <text x="219" y="107.2" fill="#000000" font-family="Arial" font-size="14">account</text>
        <text x="219" y="125.2" fill="#000000" font-family="Arial" font-size="14">date</text>
    </g>

    <!-- Entity RECURRENT -->
    <g id="entity-RECURRENT">
        <g id="frame-RECURRENT">
            <rect x="402" y="885" width="108" height="28" fill="#fdb863" stroke="#fdb863" stroke-width="0"/>
            <rect x="402" y="913.0" width="108" height="134" fill="#fee0b6" stroke="#fee0b6" stroke-width="0"/>
            <rect x="402" y="885" width="108" height="162" fill="none" stroke="#e08214" stroke-width="3"/>
            <line x1="402" y1="913" x2="510" y2="913" stroke="#e08214" stroke-width="1.5"/>
        </g>
        <text x="410" y="905.3" fill="#000000" font-family="Arial Black" font-size="13">RECURRENT</text>
        <text x="410" y="929.2" fill="#000000" font-family="Arial" font-size="14">re_id</text>
        <line x1="410" y1="932" x2="444" y2="932" stroke="#000000" stroke-width="1.2"/>
        <text x="410" y="947.2" fill="#000000" font-family="Arial" font-size="14">amount</text>
        <text x="410" y="965.2" fill="#000000" font-family="Arial" font-size="14">libelle</text>
        <text x="410" y="983.2" fill="#000000" font-family="Arial" font-size="14">freq</text>
        <text x="410" y="1001.2" fill="#000000" font-family="Arial" font-size="14">date</text>
        <text x="410" y="1019.2" fill="#000000" font-family="Arial" font-size="14">next</text>
        <text x="410" y="1037.2" fill="#000000" font-family="Arial" font-size="14">active</text>
    </g>

    <!-- Entity FORECAST -->
    <g id="entity-FORECAST">
        <g id="frame-FORECAST">
            <rect x="408" y="565" width="96" height="28" fill="#fdb863" stroke="#fdb863" stroke-width="0"/>
            <rect x="408" y="593.0" width="96" height="80" fill="#fee0b6" stroke="#fee0b6" stroke-width="0"/>
            <rect x="408" y="565" width="96" height="108" fill="none" stroke="#e08214" stroke-width="3"/>
            <line x1="408" y1="593" x2="504" y2="593" stroke="#e08214" stroke-width="1.5"/>
        </g>
        <text x="416" y="585.3" fill="#000000" font-family="Arial Black" font-size="13">FORECAST</text>
        <text x="416" y="609.2" fill="#000000" font-family="Arial" font-size="14">fo_id</text>
        <line x1="416" y1="612" x2="449" y2="612" stroke="#000000" stroke-width="1.2"/>
        <text x="416" y="627.2" fill="#000000" font-family="Arial" font-size="14">amount</text>
        <text x="416" y="645.2" fill="#000000" font-family="Arial" font-size="14">libelle</text>
        <text x="416" y="663.2" fill="#000000" font-family="Arial" font-size="14">date</text>
    </g>

    <!-- Entity TAG -->
    <g id="entity-TAG">
        <g id="frame-TAG">
            <rect x="586" y="1279" width="72" height="28" fill="#fdb863" stroke="#fdb863" stroke-width="0"/>
            <rect x="586" y="1307.0" width="72" height="80" fill="#fee0b6" stroke="#fee0b6" stroke-width="0"/>
            <rect x="586" y="1279" width="72" height="108" fill="none" stroke="#e08214" stroke-width="3"/>
            <line x1="586" y1="1307" x2="658" y2="1307" stroke="#e08214" stroke-width="1.5"/>
        </g>
        <text x="606" y="1299.3" fill="#000000" font-family="Arial Black" font-size="13">TAG</text>
        <text x="594" y="1323.2" fill="#000000" font-family="Arial" font-size="14">ta_id</text>
        <line x1="594" y1="1326" x2="627" y2="1326" stroke="#000000" stroke-width="1.2"/>
        <text x="594" y="1341.2" fill="#000000" font-family="Arial" font-size="14">name</text>
        <text x="594" y="1359.2" fill="#000000" font-family="Arial" font-size="14">income</text>
        <text x="594" y="1377.2" fill="#000000" font-family="Arial" font-size="14">expense</text>
    </g>

    <!-- Entity TYPE_OBJECTIVE -->
    <g id="entity-TYPE_OBJECTIVE">
        <g id="frame-TYPE_OBJECTIVE">
            <rect x="549" y="9" width="146" height="28" fill="#fdb863" stroke="#fdb863" stroke-width="0"/>
            <rect x="549" y="37.0" width="146" height="98" fill="#fee0b6" stroke="#fee0b6" stroke-width="0"/>
            <rect x="549" y="9" width="146" height="126" fill="none" stroke="#e08214" stroke-width="3"/>
            <line x1="549" y1="37" x2="695" y2="37" stroke="#e08214" stroke-width="1.5"/>
        </g>
        <text x="557" y="29.3" fill="#000000" font-family="Arial Black" font-size="13">TYPE_OBJECTIVE</text>
        <text x="557" y="53.2" fill="#000000" font-family="Arial" font-size="14">to_id</text>
        <line x1="557" y1="56" x2="590" y2="56" stroke="#000000" stroke-width="1.2"/>
        <text x="557" y="71.2" fill="#000000" font-family="Arial" font-size="14">code</text>
        <text x="557" y="89.2" fill="#000000" font-family="Arial" font-size="14">libelle</text>
        <text x="557" y="107.2" fill="#000000" font-family="Arial" font-size="14">description</text>
        <text x="557" y="125.2" fill="#000000" font-family="Arial" font-size="14">account</text>
    </g>

    <!-- Entity INCOME -->
    <g id="entity-INCOME">
        <g id="frame-INCOME">
            <rect x="418" y="1073" width="76" height="28" fill="#fdb863" stroke="#fdb863" stroke-width="0"/>
            <rect x="418" y="1101.0" width="76" height="98" fill="#fee0b6" stroke="#fee0b6" stroke-width="0"/>
            <rect x="418" y="1073" width="76" height="126" fill="none" stroke="#e08214" stroke-width="3"/>
            <line x1="418" y1="1101" x2="494" y2="1101" stroke="#e08214" stroke-width="1.5"/>
        </g>
        <text x="426" y="1093.3" fill="#000000" font-family="Arial Black" font-size="13">INCOME</text>
        <text x="426" y="1117.2" fill="#000000" font-family="Arial" font-size="14">in_id</text>
        <line x1="426" y1="1120" x2="458" y2="1120" stroke="#000000" stroke-width="1.2"/>
        <text x="426" y="1135.2" fill="#000000" font-family="Arial" font-size="14">amount</text>
        <text x="426" y="1153.2" fill="#000000" font-family="Arial" font-size="14">libelle</text>
        <text x="426" y="1171.2" fill="#000000" font-family="Arial" font-size="14">date</text>
        <text x="426" y="1189.2" fill="#000000" font-family="Arial" font-size="14">checked</text>
    </g>

    <!-- Entity OBJECTIVE -->
    <g id="entity-OBJECTIVE">
        <g id="frame-OBJECTIVE">
            <rect x="406" y="161" width="100" height="28" fill="#fdb863" stroke="#fdb863" stroke-width="0"/>
            <rect x="406" y="189.0" width="100" height="134" fill="#fee0b6" stroke="#fee0b6" stroke-width="0"/>
            <rect x="406" y="161" width="100" height="162" fill="none" stroke="#e08214" stroke-width="3"/>
            <line x1="406" y1="189" x2="506" y2="189" stroke="#e08214" stroke-width="1.5"/>
        </g>
        <text x="414" y="181.3" fill="#000000" font-family="Arial Black" font-size="13">OBJECTIVE</text>
        <text x="414" y="205.2" fill="#000000" font-family="Arial" font-size="14">ob_id</text>
        <line x1="414" y1="208" x2="451" y2="208" stroke="#000000" stroke-width="1.2"/>
        <text x="414" y="223.2" fill="#000000" font-family="Arial" font-size="14">amount</text>
        <text x="414" y="241.2" fill="#000000" font-family="Arial" font-size="14">account</text>
        <text x="414" y="259.2" fill="#000000" font-family="Arial" font-size="14">freq</text>
        <text x="414" y="277.2" fill="#000000" font-family="Arial" font-size="14">date</text>
        <text x="414" y="295.2" fill="#000000" font-family="Arial" font-size="14">next</text>
        <text x="414" y="313.2" fill="#000000" font-family="Arial" font-size="14">active</text>
    </g>

    <!-- Entity EXPENSE -->
    <g id="entity-EXPENSE">
        <g id="frame-EXPENSE">
            <rect x="413" y="1467" width="86" height="28" fill="#fdb863" stroke="#fdb863" stroke-width="0"/>
            <rect x="413" y="1495.0" width="86" height="98" fill="#fee0b6" stroke="#fee0b6" stroke-width="0"/>
            <rect x="413" y="1467" width="86" height="126" fill="none" stroke="#e08214" stroke-width="3"/>
            <line x1="413" y1="1495" x2="499" y2="1495" stroke="#e08214" stroke-width="1.5"/>
        </g>
        <text x="421" y="1487.3" fill="#000000" font-family="Arial Black" font-size="13">EXPENSE</text>
        <text x="421" y="1511.2" fill="#000000" font-family="Arial" font-size="14">ex_id</text>
        <line x1="421" y1="1514" x2="457" y2="1514" stroke="#000000" stroke-width="1.2"/>
        <text x="421" y="1529.2" fill="#000000" font-family="Arial" font-size="14">amount</text>
        <text x="421" y="1547.2" fill="#000000" font-family="Arial" font-size="14">libelle</text>
        <text x="421" y="1565.2" fill="#000000" font-family="Arial" font-size="14">date</text>
        <text x="421" y="1583.2" fill="#000000" font-family="Arial" font-size="14">checked</text>
    </g>

    <!-- Entity BANK -->
    <g id="entity-BANK">
        <g id="frame-BANK">
            <rect x="33" y="725" width="88" height="28" fill="#fdb863" stroke="#fdb863" stroke-width="0"/>
            <rect x="33" y="753.0" width="88" height="80" fill="#fee0b6" stroke="#fee0b6" stroke-width="0"/>
            <rect x="33" y="725" width="88" height="108" fill="none" stroke="#e08214" stroke-width="3"/>
            <line x1="33" y1="753" x2="121" y2="753" stroke="#e08214" stroke-width="1.5"/>
        </g>
        <text x="55" y="745.3" fill="#000000" font-family="Arial Black" font-size="13">BANK</text>
        <text x="41" y="769.2" fill="#000000" font-family="Arial" font-size="14">ba_id</text>
        <line x1="41" y1="772" x2="78" y2="772" stroke="#000000" stroke-width="1.2"/>
        <text x="41" y="787.2" fill="#000000" font-family="Arial" font-size="14">name</text>
        <text x="41" y="805.2" fill="#000000" font-family="Arial" font-size="14">description</text>
        <text x="41" y="823.2" fill="#000000" font-family="Arial" font-size="14">main</text>
    </g>
</svg>
